<?xml version="1.0" encoding="utf-8"?>
<!-- Generator: Adobe Illustrator 16.0.0, SVG Export Plug-In . SVG Version: 6.00 Build 0)  -->
<!DOCTYPE svg PUBLIC "-//W3C//DTD SVG 1.1//EN" "http://www.w3.org/Graphics/SVG/1.1/DTD/svg11.dtd">
<svg version="1.1" id="레이어_1" xmlns="http://www.w3.org/2000/svg" xmlns:xlink="http://www.w3.org/1999/xlink" x="0px"
	 y="0px" width="230.682px" height="207.954px" viewBox="0 0 230.682 207.954" enable-background="new 0 0 230.682 207.954"
	 xml:space="preserve">
<path d="M7.409,100.522c0.176-0.813,0.462-1.67,0.836-2.461c0.395-0.945,0.9-1.802,1.537-2.593c0.439-0.615,0.901-1.165,1.363-1.648
	l82.067-82.068c5.405-5.493,15.095-5.273,20.062-0.22c2.152,2.109,4.307,7.054,4.328,10.063c0.021,3.802-1.494,7.515-4.197,10.218
	L55.552,89.645h153.93c7.855,0,14.238,6.395,14.238,14.238c0,7.833-6.383,14.25-14.238,14.25H55.53l57.875,57.877
	c2.109,2.109,4.176,7.031,4.176,10.02c0,3.779-1.473,7.383-4.088,9.976c-2.702,2.769-6.283,4.263-10.15,4.263
	c-3.824,0-7.428-1.494-10.064-4.175L11.54,114.134c-1.582-1.099-2.461-2.021-3.142-4.043c-0.241-0.483-0.483-1.143-0.681-1.714
	c-0.133-0.396-0.242-0.747-0.33-1.099C6.794,104.938,6.839,102.587,7.409,100.522z"/>
</svg>
