<?xml version="1.0" standalone="no"?>
<!DOCTYPE svg PUBLIC "-//W3C//DTD SVG 20010904//EN"
 "http://www.w3.org/TR/2001/REC-SVG-20010904/DTD/svg10.dtd">
<svg version="1.0" xmlns="http://www.w3.org/2000/svg"
 width="500.000000pt" height="500.000000pt" viewBox="0 0 500.000000 500.000000"
 preserveAspectRatio="xMidYMid meet">
<metadata>
Created by potrace 1.11, written by Peter Selinger 2001-2013
</metadata>
<g transform="translate(0.000000,500.000000) scale(0.100000,-0.100000)"
fill="#000000" stroke="none">
<path d="M0 2500 l0 -2500 2500 0 2500 0 0 2500 0 2500 -2500 0 -2500 0 0
-2500z m1234 442 c32 -17 67 -32 76 -32 10 0 23 -7 30 -15 7 -8 22 -15 33 -15
31 0 85 -46 108 -93 12 -23 27 -49 34 -57 8 -8 21 -37 30 -65 10 -27 24 -55
33 -61 13 -9 14 -27 9 -105 l-7 -94 -40 -33 c-42 -35 -47 -50 -28 -81 14 -23
-10 -59 -97 -146 -84 -84 -120 -110 -197 -138 -36 -14 -77 -32 -90 -40 -53
-35 -246 -13 -327 36 -20 13 -43 27 -52 32 -65 40 -117 88 -122 114 -3 15 -19
50 -34 77 -50 85 -66 158 -61 275 5 103 10 124 71 259 16 34 128 145 168 165
17 9 53 23 80 31 26 8 50 18 53 22 2 4 64 5 138 2 126 -5 136 -7 192 -38z
m1327 8 c56 0 228 -70 280 -114 25 -21 34 -24 56 -15 39 15 53 -4 25 -34 l-22
-24 35 -46 c19 -25 40 -58 45 -72 6 -15 9 -102 8 -199 l-2 -171 -34 -65 c-18
-36 -46 -78 -60 -94 -25 -26 -43 -40 -132 -100 -49 -32 -167 -56 -280 -54 -84
1 -103 4 -165 32 -158 72 -174 82 -241 147 -49 49 -102 132 -96 152 1 4 -5 22
-14 39 -12 22 -14 43 -9 77 4 25 7 85 6 133 -2 96 20 170 55 183 11 3 48 40
83 81 35 41 69 74 74 74 6 0 18 7 27 15 49 45 301 97 326 68 6 -7 22 -13 35
-13z m1459 8 c8 -3 40 -13 71 -22 99 -29 242 -119 255 -161 4 -11 15 -31 25
-44 11 -13 19 -32 19 -42 0 -9 11 -26 23 -36 32 -25 43 -119 26 -214 -10 -55
-10 -83 1 -138 11 -58 11 -71 -1 -85 -48 -57 -235 -233 -257 -243 -15 -7 -73
-12 -134 -13 l-108 0 0 443 c-1 243 -3 470 -6 504 l-5 61 38 -2 c21 -2 45 -5
53 -8z"/>
</g>
</svg>
