<?xml version="1.0" encoding="utf-8"?>
<!-- Generator: Adobe Illustrator 16.0.0, SVG Export Plug-In . SVG Version: 6.00 Build 0)  -->
<!DOCTYPE svg PUBLIC "-//W3C//DTD SVG 1.1//EN" "http://www.w3.org/Graphics/SVG/1.1/DTD/svg11.dtd">
<svg version="1.1" id="Layer_1" xmlns="http://www.w3.org/2000/svg" xmlns:xlink="http://www.w3.org/1999/xlink" x="0px" y="0px"
	 width="96.219px" height="96.014px" viewBox="0 0 96.219 96.014" enable-background="new 0 0 96.219 96.014" xml:space="preserve">
<path d="M64.411,13.137c-14.108-14.104-37.064-14.104-51.169,0c-14.104,14.111-14.104,37.059,0,51.167
	c13.564,13.564,35.301,14.083,49.496,1.561l26.918,26.921c0.892,0.892,2.339,0.892,3.231,0s0.892-2.341,0-3.233L65.969,62.634
	C78.487,48.437,77.976,26.702,64.411,13.137z M61.18,61.077C48.851,73.4,28.796,73.4,16.47,61.077
	C4.147,48.75,4.147,28.695,16.477,16.371c12.323-12.325,32.374-12.325,44.7,0C73.503,28.695,73.503,48.75,61.18,61.077z"/>
</svg>
