<?xml version="1.0" encoding="utf-8"?>
<!-- Generator: Adobe Illustrator 16.0.0, SVG Export Plug-In . SVG Version: 6.00 Build 0)  -->
<!DOCTYPE svg PUBLIC "-//W3C//DTD SVG 1.1//EN" "http://www.w3.org/Graphics/SVG/1.1/DTD/svg11.dtd">
<svg version="1.1" id="Layer_1" xmlns="http://www.w3.org/2000/svg" xmlns:xlink="http://www.w3.org/1999/xlink" x="0px" y="0px"
	 width="1341.375px" height="168px" viewBox="0 0 1341.375 168" enable-background="new 0 0 1341.375 168" xml:space="preserve">
<g>
	<linearGradient id="SVGID_1_" gradientUnits="userSpaceOnUse" x1="33.0586" y1="64.9531" x2="1257.8771" y2="-107.2362">
		<stop  offset="0" style="stop-color:#FFCC47"/>
		<stop  offset="0.4783" style="stop-color:#FF4351"/>
		<stop  offset="1" style="stop-color:#2EA7D7"/>
	</linearGradient>
	<rect x="8.112" y="7.049" fill="url(#SVGID_1_)" width="32.479" height="118.257"/>
	<linearGradient id="SVGID_2_" gradientUnits="userSpaceOnUse" x1="28.5278" y1="32.7285" x2="1253.3489" y2="-139.4612">
		<stop  offset="0" style="stop-color:#FFCC47"/>
		<stop  offset="0.4783" style="stop-color:#FF4351"/>
		<stop  offset="1" style="stop-color:#2EA7D7"/>
	</linearGradient>
	<polygon fill="url(#SVGID_2_)" points="49.585,30.367 58.246,30.367 53.916,52.187 75.402,52.187 82.398,31.2 82.398,3.718 
		49.585,3.718 	"/>
	<linearGradient id="SVGID_3_" gradientUnits="userSpaceOnUse" x1="37.0093" y1="93.0537" x2="1261.8264" y2="-79.1354">
		<stop  offset="0" style="stop-color:#FFCC47"/>
		<stop  offset="0.4783" style="stop-color:#FF4351"/>
		<stop  offset="1" style="stop-color:#2EA7D7"/>
	</linearGradient>
	<polygon fill="url(#SVGID_3_)" points="131.2,97.532 115.542,38.861 83.064,38.861 112.544,125.306 147.022,125.306 
		176.504,38.861 147.022,38.861 	"/>
	<linearGradient id="SVGID_4_" gradientUnits="userSpaceOnUse" x1="39.1587" y1="108.335" x2="1263.9711" y2="-63.8535">
		<stop  offset="0" style="stop-color:#FFCC47"/>
		<stop  offset="0.4783" style="stop-color:#FF4351"/>
		<stop  offset="1" style="stop-color:#2EA7D7"/>
	</linearGradient>
	<path fill="url(#SVGID_4_)" d="M251.123,43.765c-7.107-4.156-15.879-6.236-26.315-6.236c-10.439,0-19.212,2.101-26.316,6.299
		c-7.108,4.2-12.493,9.762-16.157,16.687c-3.664,6.927-5.496,14.533-5.496,22.819c0,5.799,1.053,11.32,3.164,16.569
		c2.109,5.253,5.189,9.901,9.245,13.945c4.052,4.046,9.077,7.245,15.074,9.598c5.996,2.351,12.825,3.526,20.487,3.526
		c7.104,0,13.491-1.028,19.154-3.082c5.663-2.053,10.577-4.855,14.74-8.41c4.165-3.553,7.413-7.662,9.745-12.326l-26.816-7.662
		c-1,2.777-3.027,4.943-6.08,6.496c-3.056,1.557-6.303,2.332-9.743,2.332c-2.444,0-4.805-0.421-7.079-1.264
		c-2.278-0.844-4.165-2.186-5.664-4.031c-1.499-1.846-2.36-4.246-2.581-7.197h61.46c0.221-1.311,0.417-2.813,0.584-4.51
		c0.166-1.694,0.249-3.361,0.249-5.004c0-7.982-1.832-15.362-5.496-22.145C263.615,53.389,258.228,47.921,251.123,43.765z
		 M209.816,72.84c0.333-2.711,1.137-5.005,2.415-6.881c1.275-1.877,2.941-3.336,4.997-4.38c2.053-1.041,4.414-1.564,7.079-1.564
		c2.664,0,5.023,0.523,7.079,1.564c2.053,1.044,3.719,2.503,4.996,4.38c1.275,1.876,2.082,4.17,2.415,6.881H209.816z"/>
	<linearGradient id="SVGID_5_" gradientUnits="userSpaceOnUse" x1="39.9893" y1="114.2637" x2="1264.808" y2="-57.9257">
		<stop  offset="0" style="stop-color:#FFCC47"/>
		<stop  offset="0.4783" style="stop-color:#FF4351"/>
		<stop  offset="1" style="stop-color:#2EA7D7"/>
	</linearGradient>
	<path fill="url(#SVGID_5_)" d="M345.06,7.049l-37.809,118.257h33.146l6.113-23.15h33.412l6.112,23.15h32.979L381.371,7.049H345.06z
		 M352.226,80.502l10.989-41.641l10.991,41.641H352.226z"/>
	<linearGradient id="SVGID_6_" gradientUnits="userSpaceOnUse" x1="41.0005" y1="121.4644" x2="1265.8287" y2="-50.7263">
		<stop  offset="0" style="stop-color:#FFCC47"/>
		<stop  offset="0.4783" style="stop-color:#FF4351"/>
		<stop  offset="1" style="stop-color:#2EA7D7"/>
	</linearGradient>
	<path fill="url(#SVGID_6_)" d="M469.148,99.822c-1.557,0.446-2.998,0.667-4.331,0.667c-2.665,0-4.691-0.859-6.079-2.582
		c-1.39-1.721-2.082-4.191-2.082-7.412V3.718h-31.647v97.938c0,8.106,2.275,14.352,6.829,18.737
		c4.552,4.388,11.048,6.579,19.487,6.579c4.219,0,8.687-0.499,13.408-1.499c4.719-0.999,8.966-2.386,12.742-4.164l-3.997-23.318
		C472.146,98.769,470.702,99.38,469.148,99.822z"/>
	<linearGradient id="SVGID_7_" gradientUnits="userSpaceOnUse" x1="44.9536" y1="149.5508" x2="1269.7661" y2="-22.6377">
		<stop  offset="0" style="stop-color:#FFCC47"/>
		<stop  offset="0.4783" style="stop-color:#FF4351"/>
		<stop  offset="1" style="stop-color:#2EA7D7"/>
	</linearGradient>
	<polygon fill="url(#SVGID_7_)" points="586.408,38.861 565.587,96.054 559.758,76.66 575.748,38.861 550.264,38.861 
		542.769,64.171 535.275,38.861 509.791,38.861 525.78,76.66 519.951,96.054 499.13,38.861 469.316,38.861 505.127,125.306 
		530.944,125.306 542.769,92.437 554.595,125.306 580.412,125.306 616.223,38.861 	"/>
	<linearGradient id="SVGID_8_" gradientUnits="userSpaceOnUse" x1="47.8945" y1="170.502" x2="1272.719" y2="-1.6882">
		<stop  offset="0" style="stop-color:#FFCC47"/>
		<stop  offset="0.4783" style="stop-color:#FF4351"/>
		<stop  offset="1" style="stop-color:#2EA7D7"/>
	</linearGradient>
	<path fill="url(#SVGID_8_)" d="M703.834,96.624c-0.891-1.138-1.33-3.17-1.33-6.096V73.945c0-12.027-3.807-21.105-11.412-27.229
		s-18.35-9.188-32.229-9.188c-7.441,0-14.408,0.917-20.904,2.749s-12.687,4.638-18.572,8.412l9.161,19.653
		c4.665-3.107,9.133-5.468,13.409-7.079c4.272-1.608,8.854-2.415,13.741-2.415c5.33,0,9.187,0.958,11.576,2.868
		c2.385,1.912,3.581,4.843,3.581,8.791v2.665c-2.224-1.108-4.86-1.94-7.912-2.498c-3.056-0.555-6.304-0.833-9.743-0.833
		c-7.329,0-13.854,1.258-19.571,3.767c-5.721,2.508-10.189,5.975-13.408,10.394c-3.222,4.419-4.831,9.522-4.831,15.306
		c0,5.238,1.333,9.96,3.998,14.16c2.666,4.2,6.329,7.502,10.993,9.902c4.665,2.399,9.883,3.602,15.657,3.602
		c5.773,0,11.214-1.306,16.323-3.914c5.105-2.607,9.604-6.412,13.491-11.41l0.666,3.165c0.889,3.998,2.805,7.024,5.748,9.077
		c2.94,2.054,7.247,3.082,12.909,3.082c1.775,0,3.803-0.14,6.078-0.416c2.275-0.279,4.689-0.695,7.246-1.25V98.657
		C706.276,98.44,704.721,97.764,703.834,96.624z M670.856,95.344c0,1.052-0.392,2.074-1.167,3.071
		c-0.776,0.999-1.777,1.918-2.998,2.756c-1.443,0.943-3.193,1.704-5.246,2.281c-2.056,0.579-4.027,0.867-5.913,0.867
		c-1.999,0-3.776-0.341-5.329-1.022c-1.558-0.682-2.778-1.626-3.665-2.834c-0.89-1.208-1.332-2.545-1.332-4.016
		c0-2.731,1.304-4.987,3.913-6.772c2.608-1.785,5.801-2.678,9.577-2.678c1.775,0,3.803,0.211,6.08,0.63
		c2.274,0.421,4.302,0.944,6.08,1.575V95.344z"/>
	<linearGradient id="SVGID_9_" gradientUnits="userSpaceOnUse" x1="51.4585" y1="195.7246" x2="1276.2515" y2="23.5389">
		<stop  offset="0" style="stop-color:#FFCC47"/>
		<stop  offset="0.4783" style="stop-color:#FF4351"/>
		<stop  offset="1" style="stop-color:#2EA7D7"/>
	</linearGradient>
	<path fill="url(#SVGID_9_)" d="M756.805,93.473l-16.658-54.611h-32.479l31.813,86.784c-0.225,2.456-0.777,4.541-1.666,6.252
		c-0.889,1.713-2.109,2.986-3.664,3.819s-3.498,1.249-5.83,1.249c-1.777,0-3.746-0.25-5.912-0.749
		c-2.164-0.5-4.525-1.194-7.078-2.083v26.983c2.666,1.108,5.355,1.915,8.078,2.415c2.719,0.5,5.467,0.75,8.244,0.75
		c5.996,0,11.602-1.191,16.822-3.561c5.219-2.377,9.715-5.682,13.492-9.916c3.773-4.237,6.494-9.158,8.16-14.767l29.646-97.178
		h-29.48L756.805,93.473z"/>
	<linearGradient id="SVGID_10_" gradientUnits="userSpaceOnUse" x1="51.106" y1="193.459" x2="1275.9568" y2="21.2651">
		<stop  offset="0" style="stop-color:#FFCC47"/>
		<stop  offset="0.4783" style="stop-color:#FF4351"/>
		<stop  offset="1" style="stop-color:#2EA7D7"/>
	</linearGradient>
	<path fill="url(#SVGID_10_)" d="M863.901,77.811c-4.773-2.22-10.938-4.413-18.486-6.582c-2.557-0.757-4.664-1.434-6.33-2.029
		c-1.664-0.597-2.889-1.247-3.664-1.952c-0.779-0.702-1.166-1.598-1.166-2.681c0-1.082,0.275-1.949,0.834-2.6
		c0.553-0.65,1.357-1.138,2.412-1.463c1.057-0.324,2.305-0.489,3.75-0.489c2.998,0,6.412,0.723,10.244,2.165
		c3.83,1.445,8.52,3.888,14.074,7.329l11.992-19.321c-5.555-4.773-11.303-8.078-17.238-9.91c-5.943-1.832-11.855-2.749-17.74-2.749
		c-7.885,0-14.633,1.31-20.236,3.926c-5.609,2.617-9.912,6.188-12.91,10.712c-2.996,4.522-4.494,9.728-4.494,15.615
		c0,5.016,1.137,9.02,3.412,12.018s5.717,5.53,10.328,7.603c4.607,2.07,10.352,4.307,17.238,6.703
		c2.666,0.766,4.855,1.474,6.578,2.127c1.721,0.656,2.971,1.309,3.748,1.962c0.775,0.656,1.168,1.474,1.168,2.452
		c0,1.268-0.559,2.168-1.666,2.704c-1.113,0.535-2.834,0.803-5.164,0.803c-4.111,0-8.689-0.999-13.742-2.997
		s-10.301-4.773-15.74-8.328l-10.826,19.486c5.105,4.777,11.354,8.412,18.74,10.91c7.383,2.5,14.904,3.748,22.566,3.748
		c11.215,0,20.072-2.545,26.568-7.638c6.494-5.091,9.744-12.134,9.744-21.128c0-5.09-1.143-9.207-3.418-12.352
		C872.202,82.714,868.676,80.033,863.901,77.811z"/>
	<linearGradient id="SVGID_11_" gradientUnits="userSpaceOnUse" x1="51.2358" y1="194.127" x2="1276.0354" y2="21.9403">
		<stop  offset="0" style="stop-color:#FFCC47"/>
		<stop  offset="0.4783" style="stop-color:#FF4351"/>
		<stop  offset="1" style="stop-color:#2EA7D7"/>
	</linearGradient>
	<path fill="url(#SVGID_11_)" d="M1008.141,64.679c5.662-2.553,9.91-6.384,12.742-11.492c2.83-5.106,4.246-10.382,4.246-15.823
		c0-4.998-1.082-9.828-3.246-14.491c-2.166-4.664-5.277-8.466-9.328-11.41c-4.055-2.939-8.857-4.413-14.408-4.413h-68.623v118.257
		h58.131c7.77,0,14.877-1.053,21.318-3.164c6.438-2.107,11.576-5.385,15.408-9.828c3.83-4.439,5.746-10.214,5.746-17.32
		c0-8.217-1.975-14.825-5.914-19.821C1020.272,70.175,1014.913,66.677,1008.141,64.679z M962.004,34.697h23.15
		c1.441,0,2.75,0.308,3.916,0.916c1.166,0.612,2.105,1.557,2.83,2.832c0.721,1.278,1.084,3.026,1.084,5.247
		c0,2.443-0.447,4.33-1.334,5.663c-0.891,1.332-1.998,2.248-3.33,2.748c-1.334,0.499-2.723,0.749-4.166,0.749h-22.15V34.697z
		 M995.899,93.493c-0.834,1.445-1.973,2.555-3.414,3.332c-1.445,0.777-3.057,1.165-4.83,1.165h-25.65V78.171h26.814
		c1.668,0,3.109,0.444,4.332,1.331c1.221,0.891,2.191,2.082,2.914,3.581c0.721,1.5,1.082,3.248,1.082,5.247
		C997.147,90.328,996.731,92.052,995.899,93.493z"/>
	<linearGradient id="SVGID_12_" gradientUnits="userSpaceOnUse" x1="55.8252" y1="226.9805" x2="1280.6566" y2="54.7893">
		<stop  offset="0" style="stop-color:#FFCC47"/>
		<stop  offset="0.4783" style="stop-color:#FF4351"/>
		<stop  offset="1" style="stop-color:#2EA7D7"/>
	</linearGradient>
	<path fill="url(#SVGID_12_)" d="M1111.741,43.765c-7.109-4.156-15.883-6.236-26.318-6.236c-10.438,0-19.211,2.101-26.316,6.299
		c-7.105,4.2-12.492,9.762-16.156,16.687c-3.664,6.927-5.494,14.533-5.494,22.819c0,5.799,1.051,11.32,3.164,16.569
		c2.105,5.253,5.188,9.901,9.242,13.945c4.053,4.046,9.078,7.245,15.074,9.598c5.996,2.351,12.826,3.526,20.486,3.526
		c7.105,0,13.492-1.028,19.156-3.082c5.662-2.053,10.576-4.855,14.74-8.41c4.164-3.553,7.41-7.662,9.742-12.326l-26.816-7.662
		c-0.998,2.777-3.025,4.943-6.078,6.496c-3.055,1.557-6.305,2.332-9.744,2.332c-2.443,0-4.803-0.421-7.08-1.264
		c-2.275-0.844-4.162-2.186-5.662-4.031s-2.361-4.246-2.58-7.197h61.459c0.223-1.311,0.418-2.813,0.584-4.51
		c0.168-1.694,0.25-3.361,0.25-5.004c0-7.982-1.834-15.362-5.498-22.145C1124.233,53.389,1118.844,47.921,1111.741,43.765z
		 M1070.432,72.84c0.334-2.711,1.139-5.005,2.414-6.881c1.275-1.877,2.941-3.336,4.998-4.38c2.055-1.041,4.414-1.564,7.08-1.564
		c2.664,0,5.021,0.523,7.078,1.564c2.053,1.044,3.719,2.503,4.996,4.38c1.277,1.876,2.082,4.17,2.416,6.881H1070.432z"/>
	<linearGradient id="SVGID_13_" gradientUnits="userSpaceOnUse" x1="57.8013" y1="240.9619" x2="1282.6198" y2="68.7726">
		<stop  offset="0" style="stop-color:#FFCC47"/>
		<stop  offset="0.4783" style="stop-color:#FF4351"/>
		<stop  offset="1" style="stop-color:#2EA7D7"/>
	</linearGradient>
	<path fill="url(#SVGID_13_)" d="M1213.174,43.765c-7.109-4.156-15.881-6.236-26.316-6.236c-10.439,0-19.213,2.101-26.316,6.299
		c-7.109,4.2-12.492,9.762-16.158,16.687c-3.664,6.927-5.496,14.533-5.496,22.819c0,5.799,1.055,11.32,3.164,16.569
		c2.107,5.253,5.189,9.901,9.244,13.945c4.055,4.046,9.078,7.245,15.074,9.598c5.996,2.351,12.824,3.526,20.488,3.526
		c7.104,0,13.49-1.028,19.154-3.082c5.662-2.053,10.576-4.855,14.74-8.41c4.164-3.553,7.412-7.662,9.744-12.326l-26.816-7.662
		c-1,2.777-3.027,4.943-6.08,6.496c-3.057,1.557-6.303,2.332-9.744,2.332c-2.445,0-4.805-0.421-7.076-1.264
		c-2.279-0.844-4.166-2.186-5.666-4.031c-1.498-1.846-2.359-4.246-2.582-7.197h61.463c0.219-1.311,0.414-2.813,0.582-4.51
		c0.166-1.694,0.25-3.361,0.25-5.004c0-7.982-1.832-15.362-5.496-22.145C1225.667,53.389,1220.278,47.921,1213.174,43.765z
		 M1171.866,72.84c0.332-2.711,1.139-5.005,2.416-6.881c1.275-1.877,2.941-3.336,4.998-4.38c2.053-1.041,4.412-1.564,7.078-1.564
		c2.664,0,5.021,0.523,7.078,1.564c2.053,1.044,3.721,2.503,4.998,4.38c1.273,1.876,2.082,4.17,2.414,6.881H1171.866z"/>
	<linearGradient id="SVGID_14_" gradientUnits="userSpaceOnUse" x1="59.77" y1="254.9219" x2="1284.58" y2="82.7337">
		<stop  offset="0" style="stop-color:#FFCC47"/>
		<stop  offset="0.4783" style="stop-color:#FF4351"/>
		<stop  offset="1" style="stop-color:#2EA7D7"/>
	</linearGradient>
	<path fill="url(#SVGID_14_)" d="M1332.43,58.901c-0.557-3.548-1.723-6.96-3.498-10.236c-1.777-3.273-4.441-5.949-7.996-8.023
		c-3.553-2.074-8.328-3.113-14.322-3.113c-4.996,0-9.607,0.548-13.824,1.638c-4.223,1.093-7.939,2.702-11.16,4.83
		c-3.223,2.13-5.887,4.778-7.996,7.943V38.861h-28.48v86.444h31.646v-48.31c0.998-2.312,2.33-4.358,3.996-6.145
		c1.666-1.785,3.5-3.178,5.498-4.177c1.998-0.997,3.885-1.497,5.662-1.497c2.553,0,4.803,0.95,6.746,2.845
		c1.941,1.897,2.916,4.958,2.916,9.182v48.102h31.646V68.645C1333.264,65.698,1332.985,62.451,1332.43,58.901z"/>
</g>
</svg>
