<?xml version="1.0" encoding="utf-8"?>
<!-- Generator: Adobe Illustrator 16.0.0, SVG Export Plug-In . SVG Version: 6.00 Build 0)  -->
<!DOCTYPE svg PUBLIC "-//W3C//DTD SVG 1.1//EN" "http://www.w3.org/Graphics/SVG/1.1/DTD/svg11.dtd">
<svg version="1.1" id="Layer_1" xmlns="http://www.w3.org/2000/svg" xmlns:xlink="http://www.w3.org/1999/xlink" x="0px" y="0px"
	 width="98.137px" height="111.082px" viewBox="0 0 98.137 111.082" enable-background="new 0 0 98.137 111.082"
	 xml:space="preserve">
<path d="M94.588,46.118L52.325,3.854c-0.234-0.235-0.489-0.44-0.705-0.577l-0.4-0.232c-0.108-0.059-0.217-0.114-0.397-0.193
	L50.409,2.71c-0.144-0.048-0.29-0.086-0.446-0.119L49.07,2.505c-0.297,0-0.594,0.027-0.906,0.088l-0.381,0.101
	c-0.182,0.049-0.363,0.111-0.479,0.162l-0.416,0.205c-0.126,0.065-0.252,0.136-0.361,0.208L3.548,46.118
	c-1.795,1.793-1.795,4.714,0,6.507c1.74,1.742,4.781,1.735,6.506,0l34.413-34.413v85.764c0,2.538,2.065,4.6,4.603,4.6
	s4.6-2.062,4.6-4.6V18.213l34.413,34.413c1.735,1.737,4.767,1.74,6.506,0C96.384,50.832,96.384,47.912,94.588,46.118z"/>
</svg>
